<svg xmlns="http://www.w3.org/2000/svg" viewBox="110 70 550 620" role="img" aria-labelledby="title desc">
  <title id="title">Laya Green Energy</title>
  <desc id="desc">Laya Green Energy transparent logo with leaf mark and tagline</desc>
  <defs>
    <linearGradient id="leaf" x1="0" y1="0" x2="1" y2="1">
      <stop offset="0" stop-color="#74b631" />
      <stop offset="1" stop-color="#064f35" />
    </linearGradient>
  </defs>
  <path d="M267 83c54 11 88 57 88 112v169c0 54-26 87-73 104-10-18-15-38-15-62V83Z" fill="url(#leaf)" />
  <path d="M323 425c53-81 124-108 218-102-26 80-75 126-145 137-24 4-48 3-73-1 43-43 97-71 160-87-69 12-122 32-160 53Z" fill="url(#leaf)" />
  <path d="M323 425c-4 10-6 22-5 38" fill="none" stroke="#fff" stroke-width="8" stroke-linecap="round" />
  <g fill="#124936">
    <path d="M145 470h19v100h61v18h-80V470Z" />
    <path d="m255 588 58-118h11l-34 118h-35Z" />
    <path d="m313 470h20l58 118h-21l-34-118h-23Z" />
    <path d="m407 470 35 45 35-45h23l-48 63v55h-20v-55l-48-63h23Z" />
    <path d="m507 588 58-118h11l-34 118h-35Z" />
    <path d="m565 470h20l58 118h-21l-34-118h-23Z" />
    <text x="384" y="632" font-family="Arial, Helvetica, sans-serif" font-size="30" letter-spacing="10" text-anchor="middle">GREEN ENERGY</text>
  </g>
  <g fill="#32664e" font-family="Arial, Helvetica, sans-serif" text-anchor="middle">
    <path d="M116 665h40M612 665h40" stroke="#32664e" stroke-width="2" />
    <text x="384" y="670" font-size="15" letter-spacing="5">CLEANER TODAY  BRIGHTER TOMORROW</text>
  </g>
</svg>
